<svg width="100" height="100" viewBox="0 0 100 100" fill="none" xmlns="http://www.w3.org/2000/svg">
<path d="M48.465 59.875C46.8565 59.877 45.2722 59.4821 43.8528 58.7252C42.4334 57.9683 41.2227 56.8729 40.3281 55.536C39.4335 54.1991 38.8826 52.6622 38.7242 51.0614C38.5658 49.4606 38.8049 47.8455 39.4203 46.3592C40.0357 44.873 41.0083 43.5616 42.2519 42.5412C43.4955 41.5209 44.9716 40.8232 46.5494 40.5101C48.1272 40.1969 49.7579 40.2779 51.297 40.7459C52.836 41.2139 54.2357 42.0545 55.3721 43.193L60.444 38.116C58.0736 35.7439 55.0529 34.1282 51.764 33.4731C48.4751 32.818 45.0659 33.1531 41.9674 34.4359C38.869 35.7187 36.2206 37.8916 34.3573 40.6797C32.494 43.4679 31.4994 46.746 31.4994 50.0995C31.4994 53.453 32.494 56.7311 34.3573 59.5193C36.2206 62.3074 38.869 64.4803 41.9674 65.7631C45.0659 67.0459 48.4751 67.381 51.764 66.7259C55.0529 66.0708 58.0736 64.4551 60.444 62.083L55.3721 57.011C54.4658 57.9192 53.3891 58.6397 52.2039 59.1312C51.0187 59.6227 49.7481 59.8754 48.465 59.875Z" fill="#F0AB00"/>
<path d="M62.721 45.813C61.8736 45.813 61.0452 46.0642 60.3406 46.535C59.636 47.0058 59.0868 47.6749 58.7624 48.4577C58.438 49.2406 58.3531 50.1021 58.5182 50.9332C58.6834 51.7644 59.0913 52.5279 59.6904 53.1272C60.2894 53.7266 61.0528 54.1348 61.8838 54.3004C62.7149 54.466 63.5764 54.3814 64.3595 54.0574C65.1425 53.7334 65.8118 53.1845 66.2829 52.4801C66.754 51.7757 67.0056 50.9474 67.006 50.1C67.0062 49.5372 66.8954 48.98 66.6801 48.46C66.4648 47.9401 66.1492 47.4677 65.7513 47.0697C65.3534 46.6718 64.8809 46.3562 64.361 46.1409C63.8411 45.9256 63.2838 45.8149 62.721 45.815" fill="#F0AB00"/>
<path d="M18 82H82V18H18V82ZM25.165 74.836V25.158H74.846V74.836H25.165Z" fill="#F0AB00"/>
</svg>
