<svg height="1108" viewBox="3.543 3.58 890.234 393.616" width="2500" xmlns="http://www.w3.org/2000/svg"><g fill-rule="evenodd"><g fill="#083390"><path d="m152.92 390.967h-2.48c-83.717-8.027-54.275-136.164 27.892-99.171l1.86.62-6.199 15.495-3.1-1.24c-66.702-30.277-68.355 90.525 2.48 64.462l2.48-1.24 4.338 14.256-1.24.62c-3.43 3.171-19.472 6.373-24.172 6.198zm67.56-62.602h-1.24l-1.24.62h-1.86l-1.239.62h-.62l-1.24.62-.62.62-1.239.62-.62.62h-.62l-.62 1.239-1.859 1.86-.62 1.239-1.24 1.24v1.24l-.619.619v1.24l-.62 1.24v.619l-.62 1.24c-.909 7.23-.898 9.545 0 16.735l.62 1.24v.62l.62 1.239v1.24l.62.62v1.239l.62.62.62.62.62 1.24.62.619.619.62.62.62.62.62c1.983 1.983 4.607 3.646 7.437 3.718h6.818c2.263-.217 4.546-1.198 6.198-3.099l1.24-.62.62-.62.62-.62.62-.619.62-.62.62-1.24v-.62l.619-.62.62-1.239v-.62l.62-1.24v-1.239l.62-.62v-1.24c1.683-7.303 1.342-7.892.62-14.875l-.62-1.86v-1.239l-.62-.62v-1.24l-.62-1.24v-.619l-.62-1.24-.62-.62v-.62l-.62-1.239-1.86-1.86-.619-1.239h-1.24l-1.24-1.24-1.239-.62-.62-.62h-1.24l-.62-.619h-2.478l-1.24-.62zm0 62.602h-6.199l-1.86-.62-1.859-.62h-1.86l-1.859-.62-1.859-.62-1.24-1.24-1.86-.619-1.859-.62-1.24-1.24-1.859-1.239-1.24-1.24-4.958-4.958c-4.122-6.322-7.066-13.554-7.438-21.074v-6.198c.672-20.65 12.531-33.718 32.85-37.19h6.819c47.26 3.203 46.372 74.39 1.86 78.098z"/><path d="m316.551 389.727v-51.445l-.62-.62v-1.24l-.62-.619v-.62l-.62-.62v-.62h-.62l-.619-.62v-.62l-.62-.619-6.198-3.099h-3.1c-4.224-.217-9.09.33-13.015 1.86l-1.86.62-1.86.62v3.098l.62 54.544h-17.974v-60.122l-.62-1.86v-3.099l-.62-3.099v-1.24l3.72-1.239c21.507-8.15 63.252-13.285 62.6 20.454v50.205zm59.503 2.479h-4.959l-1.24-.62h-1.859l-1.24-.62h-1.24l-.62-.619-1.239-.62h-.62l-1.24-.62-1.239-1.24-1.24-.619-.62-.62-.62-.62-.619-.62-.62-1.24-.62-.619-.62-.62-.62-1.24v-.62l-1.239-2.478v-1.86l-.62-1.24v-45.246l-8.677-.62v-14.256l8.677-.62v-20.454h17.975v20.454h21.074v15.496h-21.074v42.147l.62.62v1.24l.62.62h.62v.62h.62l.62.62h1.239l1.24.62h3.098l1.24-.62h1.86l1.859-.62 1.86-.62h1.24l1.859-.62 1.24-.62 5.578 14.256-2.48 1.24c-5.878 1.539-10.733 2.83-16.735 3.098zm69.419-61.981-1.24-.62c-9.359-1.643-11.053-1.674-20.453.62l-1.86.62h.62v58.882h-17.975v-57.023c-.351-3.337-.692-6.673-1.24-9.917v-1.24l3.72-1.86 4.338-1.859c6.281-2.283 10.816-2.758 16.735-4.338h2.48l1.859-.62c4.442-.196 11.301.196 15.495 1.24h1.24l1.86.62zm42.147-1.86h-1.239l-1.24.62h-1.859l-1.24.62h-1.24l-.62.62-1.239.62-1.24 1.24h-.62l-.619 1.239-.62.62-1.24 1.24-.62 1.239-1.239 1.24v1.24l-.62.619-.62 1.24v1.24l-.62.619v1.24l-.62 1.86v13.015l.62 1.86v1.24l.62.62v1.239l.62 1.24.62.62v1.239l.62.62.62.62.62 1.24.62.619.62.62.619.62.62.62 1.86 1.859 1.239.62.62.62h1.24l1.239.62h8.677l1.24-.62h1.24l.62-.62 1.24-.62 1.859-1.86.62-.62 1.24-.62.619-.619.62-.62v-1.24l.62-.62.62-.62.62-1.239v-.62l.619-1.24v-1.239l.62-.62v-1.24l.62-1.859v-13.016l-.62-1.86v-1.239l-.62-.62v-1.24l-.62-1.24v-.619l-.62-1.24-1.24-1.24v-1.239l-1.239-1.24-1.24-.62-.62-1.239h-.62l-1.239-1.24-1.24-.62-.62-.62h-1.238l-1.24-.619h-1.86l-1.24-.62zm0 62.602h-6.197c-18.678-3.151-30.692-17.779-30.991-36.57v-4.338c.578-20.754 12.603-33.77 32.85-37.19h6.198c47.55 2.408 46.982 74.42 2.48 78.098z"/><path d="m553.941 389.727v-110.327h-17.975v110.327zm35.329 1.24h-1.859c-5.599.206-15.495-1.56-20.454-3.72l-2.479-1.239 4.959-13.636 1.86.62 2.478.62 2.48 1.24 1.86.62 2.478.62h2.48l1.24.619h6.197l1.24-.62h.62c3.13-1.012 5.196-2.355 6.198-5.578v-3.1c-1.126-10.082-23.729-10.67-29.131-21.693l-1.24-1.24-1.86-5.578v-8.677l.62-1.24.62-.62v-1.24l1.86-3.718.62-.62.62-1.24 1.239-.62.62-.62 1.24-.62.62-1.239 2.478-1.24.62-.62h1.24l3.719-1.859h.62l1.24-.62h1.239l1.24-.62h2.479l1.24-.62h6.198c5.051.373 9.483 1.716 14.255 2.48l2.48 1.24.62.62 1.24.62-4.96 13.635-1.859-.62-1.86-.62-2.479-.62-1.86-.619-2.478-.62h-3.72l-2.478-.62h-.62l-.62.62h-3.1l-1.239.62-.62.62h-.62l-.62.62v.62l-1.239 1.24v1.859l-.62.62.62 1.239v1.24l.62.62.62 1.24.62.619 1.24.62.619.62 2.48 1.24 1.239.619 1.86.62 1.239.62 6.198 2.479 1.86.62 1.24.62 1.859 1.24c6.55 2.437 11.941 10.588 11.776 17.354l.62 2.48-.62 1.859v2.48l-.62 1.239v1.24l-2.479 4.958-.62.62-.62 1.24-1.24.62-.619 1.239-1.24.62-1.24.62-.62.62-1.239.62c-3.202 2.106-11.229 4.348-14.875 4.338zm-565.893-127.063-1.859.62c-4.06 1.488-8.306 2.355-12.396 3.719l-2.48.62-3.099-16.116 1.24-.62h1.86l1.239-.62h1.24l1.86-.619h1.239l1.24-.62h1.239l1.24-.62.62-.62h.62l1.239-.62.62-.62h.62l.62-.619.62-.62.619-.62.62-.62v-.62l1.24-1.239v-.62l.62-.62v-.62l.62-1.239c.67-2.004 1.507-7.17 1.239-9.297v-80.576h18.593v73.138c.982 15.754-2.51 34.028-19.214 39.668z"/><path d="m93.417 191.386h-3.72l-1.239.62c-3.326.34-5.258 2.758-8.057 4.958l-.62.62v1.24l-.62.62-.62 1.239-.62.62v1.24l-.62.62v1.239l-.62.62v1.24l-.62 1.859v2.479l-.619 1.86v4.338l.62 2.48c.196 4.07 1.426 8.408 3.719 11.776v.62l.62.62.62.62.62 1.239 1.239.62.62.62h.62l.62.62 1.239.62.62.62h1.24l.62.619h2.479l1.24.62h2.478l1.24-.62h1.86l1.24-.62h.619l1.24-.62.62-.62 1.24-.62h.619l1.24-1.239.62-1.24.62-.62.619-.62.62-.62.62-1.239.62-.62v-1.24l.62-.619.62-1.24v-.62l.619-1.24v-1.239l.62-1.86v-12.396l-.62-2.479v-.62l-.62-1.24v-1.239l-.62-.62-.62-1.24v-.62l-.62-1.239-.62-.62-.619-.62c-1.787-3.222-5.196-6.001-8.677-6.198l-.62-.62zm0 61.981h-4.339c-45.278-3.502-44.059-76.62 1.86-77.477l2.479-.62 1.86.62c46.196-.01 47.798 74.213 2.479 77.477zm96.691-1.239v-50.206l-.62-1.24v-1.859l-.62-.62-1.239-2.479-2.48-2.48-2.478-1.239h-1.24l-1.24-.62c-5.878-.392-10.785.651-16.115 3.1l-1.86 1.24-1.859.619v55.784h-17.975v-109.708h17.975v37.809l2.48-.62 3.098-1.24c9.618-2.913 19.731-4.028 29.132-.62l.62.62 1.24.62c7.53 3.833 11.673 13.553 11.156 21.694v51.445zm80.577 0v-52.065l-.62-.62v-.62l-.62-.62v-.62c-3.233-2.871-.857-1.632-2.48-3.098h-.62l-1.239-1.24h-.62l-2.479-1.24h-1.24l-1.24-.62h-3.098c-2.686-.237-7.376.424-9.917 1.24l-1.86.62-1.86.62-1.859.62v.62l.62.62v56.403h-17.975v-58.883c.248-2.541-.94-6.54-1.24-9.297v-1.24l4.34-1.24 3.718-1.24 4.34-1.239c3.708-1.105 13.542-3.502 17.354-3.099h4.339c5.434.041 7.665-.29 13.016.62l2.48 1.24h1.239l1.86.62 2.479 1.239.62.62 1.24.62 1.239 1.24 1.24.619.62 1.24 1.239.62 1.86 3.718 1.239 1.24v1.24l1.24 2.479v1.86l.62 1.859v1.24l.62 1.859v52.065zm53.304 1.239h-1.86c-6.838.372-13.367-1.55-19.834-3.719l-3.099-.62 5.579-14.255 1.86.62 2.478 1.24 1.86.62 2.48.619c5.63 1.797 5.753 1.136 11.156 1.24h1.86l1.239-.62h.62l1.24-.62.62-.62h.619l1.24-.62.62-.62v-1.24l.62-.619.62-1.24v-4.338l-.62-.62-1.24-2.48-1.24-.62-.62-.62-1.24-.619-3.718-1.86-1.86-.62c-5.113-4.142-11.074-3.604-15.495-9.296l-3.72-3.72-.619-1.239-1.24-3.719c-2.086-9.483-1.167-4.855 0-12.396l1.24-2.48c2.882-4.504 2.428-5.03 7.438-7.437l.62-1.24 1.24-.62h1.239l1.24-.62.62-.62h1.239l2.48-1.24h1.239l1.24-.619h4.338l2.48-.62 1.859.62h5.578l1.24.62h3.1l2.478 1.24 2.48.62h1.24l3.718 1.859-4.958 13.636-1.86-.62-2.48-.62-1.859-.62-2.479-.62c-3.967.042-2.624-1.053-8.677-.62h-3.72l-.619.62h-.62l-.62.62h-.62l-.62.62-.62.62-.619.62v.62l-.62 1.24v2.479l.62 1.24v.619l.62 1.24 1.24.62.62.62 6.198 3.098 1.859.62 3.1 1.24c9.369 3.967 15.505 6.704 19.213 16.735v2.48l.62 1.859c.052 8.853-.775 12.727-7.438 18.594l-1.24.62-1.239.62-.62 1.24h-1.24l-4.958 2.479h-1.24l-1.24.62h-1.239c-3.357.413-2.066.847-6.818.62z"/><path d="m399.607 191.386h-3.72l-1.239.62h-.62l-1.24.62h-1.239l-.62.619-.62.62-1.24.62-3.098 3.099-.62 1.24-.62.62v1.239l-.62.62-.62 1.24v.62l-.62 1.239v1.86l-.62 1.859-.62 2.479v8.677l1.24 3.72v2.479l.62.62v1.239l.62.62.62 1.24v.62l.62 1.239.62.62.62.62.62.62.62 1.239 1.239 1.24h1.24l.62.62.619.62 1.24.62h1.24l.62.619h2.478l1.24.62h1.86l1.24-.62h2.478l1.24-.62h.62l1.24-.62 1.24-1.24h1.239l1.24-1.239.62-1.24.619-.62.62-.62.62-.62.62-1.239v-.62l.62-1.24.62-.619v-1.24l.619-.62v-1.24l.62-1.239v-1.86l.62-1.859v-8.677l-.62-1.86v-2.479l-.62-.62v-1.24l-.62-1.239v-.62l-.62-1.24-.62-.62v-1.239l-.62-.62-.62-.62-.619-1.24-2.48-2.478-1.239-.62-1.24-1.24h-1.24l-.619-.62h-1.24l-1.24-.62zm0 62.601-2.48-.62h-1.86c-45.597-2.954-44.46-77.022 1.86-77.477l2.48-.62 1.86.62h4.338c9.266 1.446 12.51 4.112 19.834 9.297l1.24 1.24 1.24 1.24.62 1.86 1.239 1.239 1.24 1.86.62 1.239 1.239 1.86.62 1.859.62 1.24 1.24 3.718v1.86l.619 1.86.62 2.478v8.058c.062 6.921-2.531 16.033-6.818 21.694l-1.24 1.24-.62 1.859c-5.124 4.958-13.016 10.743-20.454 11.156l-1.86.62h-4.338zm96.691-1.859v-48.966l-.62-1.24v-1.86l-.62-.619v-1.24l-.62-.62v-.62h-.62l-.619-.619v-.62l-1.24-1.24h-.62v-.62l-.62-.62h-.619l-2.48-1.239h-1.859l-1.24-.62h-3.098c-2.645-.258-9.39.858-11.777 1.86l-1.86.62-1.24.62v57.643h-17.974v-58.883c.444-6.333-1.002-4.04-.62-9.297l-.62-1.24 8.678-2.48 3.719-1.239c3.709-1.105 13.543-3.502 17.355-3.099h2.48l1.859-.62 1.859.62h8.058l1.24.62h1.859l2.479 1.24h1.86c9.648 3.977 14.968 12.024 15.495 22.313v52.065z"/></g><path d="m849.594 45.728-1.24-1.859-1.859-1.24-1.24-1.86-1.86-1.239-3.718 1.86c-17.396 9.06-34.049 19.245-47.106 34.09l-3.1 2.479 1.24 4.959c5.775 48.8 4.091 92.518-13.016 138.839l-1.24 2.479 1.86 3.099c7.314 12.779 21.807 28.615 34.09 36.57l3.1 2.478 1.859-1.24c3.553-2.561 8.088-3.863 9.917-6.197l1.86-1.24-2.48-2.48c-51.497-63.964-43.222-153.766 19.834-207.018z" fill="#29b683"/><path d="m817.364 20.936-3.72-2.48-1.859-.62-1.86-1.239-4.338 1.86c-7.438 4.359-15.32 7.902-22.313 13.016l-3.1 1.86.62 2.478 3.72 14.876.62 2.48 3.718-4.34c7.293-8.79 16.012-16.249 24.173-24.172zm-40.908 259.084 2.479-.62c5.392-.827 7.81-1.663 13.016-3.1l1.86-.62-3.1-4.338c-7.313-7.861-14.38-16.064-19.834-25.412l-3.099-4.34-1.86 2.48c-1.363 5.02-7.375 11.054-9.297 14.876l-1.859 2.479 2.48 2.48c5.36 5.98 10.68 9.173 16.734 14.255z" fill="#00b4c3"/><path d="m885.544 110.81-2.48 2.479c-28.904 26.6-34.12 64.884-13.636 98.55l.62 1.24 2.48-3.719c14.751-27.137 21.249-64.14 13.635-94.212z" fill="#7dba00"/><path d="m842.776 154.816v-2.479c3.492-25.774 12.603-51.58 29.132-71.899l1.86-1.86-1.24-1.859-1.24-2.479-1.24-1.86-.62-1.859-3.719 1.86c-66.206 38.656-76.444 115.885-21.693 169.21l1.86 2.479 1.859-1.86c2.334-2.603 6.497-5.857 8.057-8.677l1.24-1.24-1.24-1.859c-11.332-24.204-15.454-46.383-13.636-73.138z" fill="#55b841"/><path d="m652.492 42.63-1.86 1.859c-22.303 22.055-37.901 54.162-39.668 85.535l-.62 3.099 1.86-1.86c22.437-22.478 34.803-54.72 40.288-85.535z" fill="#01b8e0"/><path d="m680.384 21.556-1.86 1.24-1.24.619-1.859 1.24c-3.853 3.615-6.663 26.559-9.917 34.09l-1.859 4.958-1.24 4.959c-4.907 12.169-7.572 25.485-14.875 36.569l-3.72 8.677-1.859 3.72-2.479 3.718c-4.184 8.884-10.31 16.508-15.495 24.793l-2.48 3.719-2.479 3.099c-10.64 13.605-7.954 6.208-4.958 22.313l1.859 7.438 4.959-3.719c46.496-30.391 63.83-99.987 59.502-152.475z" fill="#0298cd"/><path d="m793.81 115.148v-3.719l-.62-3.719c-.495-18.739-4.214-35.515-7.437-53.924l-1.24-3.719-.62-3.099-.62-3.719c-1.972-4.122-2.985-11.993-4.958-16.115l-1.24-3.719-.62-3.099-6.198-15.495-1.859-.62h-4.339l-1.86-.62 1.24 9.917c8.265 86.61 3.668 186.307-57.023 254.745l-5.578 5.578 1.86.62 2.479 1.24 1.86.62c6.559 2.417 10.887 2.262 17.354 4.338h2.48l1.859.62h2.479l2.48.62h1.859l7.438-6.198 15.495-18.595 3.099-4.339 2.48-4.338c22.085-35.35 30.546-77.736 29.75-119.005z" fill="#083390"/><path d="m739.267 3.58h-1.86l-1.86.62h-4.338l.62 6.819c.826 77.394-13.058 172.474-71.28 228.712l-6.197 5.579 2.479 1.86c3.378 3.584 11.198 9.203 15.495 11.776l2.48 1.86 8.057-5.58c74.42-57.167 80.143-159.953 58.883-244.207z" fill="#0655a4"/><path d="m708.276 9.16-1.24.62-5.578 1.859v6.818c-5.703 66.65-22.035 134.965-71.28 183.465l-4.958 4.34 1.24 3.098c2.603 5.134 6.198 9.452 9.297 14.256l1.24 2.48 6.818-4.34c63.448-43.944 78.964-134.293 66.32-205.779z" fill="#0475b7"/></g></svg>