<?xml version="1.0" standalone="no"?><!DOCTYPE svg PUBLIC "-//W3C//DTD SVG 1.1//EN" "http://www.w3.org/Graphics/SVG/1.1/DTD/svg11.dtd"><svg t="1691562013647" class="icon" viewBox="0 0 1024 1024" version="1.1" xmlns="http://www.w3.org/2000/svg" p-id="9160" xmlns:xlink="http://www.w3.org/1999/xlink" width="64" height="64"><path d="M612.352 320a32 32 0 0 1 0-64H768a256 256 0 1 1 0 512H612.352a32 32 0 1 1 0-64H768a192 192 0 0 0 0-384H612.352zM417.408 704a32 32 0 1 1 0 64H256a256 256 0 1 1 0-512h161.408a32 32 0 0 1 0 64H256a192 192 0 1 0 0 384h161.408zM320 480h384a32 32 0 1 1 0 64H320a32 32 0 0 1 0-64z" fill="#717788" p-id="9161"></path></svg>