<svg width="100" height="100" viewBox="0 0 100 100" fill="none" xmlns="http://www.w3.org/2000/svg">
<path fill-rule="evenodd" clip-rule="evenodd" d="M27.9517 48.1698C27.0259 48.1698 26.2463 48.5132 25.6129 49.0038V48.2679H23.469V56.6566H25.7104V51.3094C26.0027 50.8679 26.7823 50.2792 27.7568 50.2792C28.0979 50.2792 28.3902 50.3283 28.6339 50.4264V48.2679C28.3902 48.2189 28.1466 48.1698 27.9517 48.1698Z" fill="#293E40"/>
<path fill-rule="evenodd" clip-rule="evenodd" d="M8.51043 54.1056C9.09513 54.6453 9.97219 54.9396 10.8005 54.9396C11.3852 54.9396 11.8725 54.6453 11.8725 54.2528C11.8725 52.9773 7.82828 53.4188 7.82828 50.7207C7.82828 49.1019 9.38749 48.1207 10.9954 48.1207C12.0674 48.1207 13.2368 48.5132 13.8215 48.9547L12.7983 50.5736C12.3597 50.2792 11.8237 49.9849 11.1903 49.9849C10.5569 49.9849 10.0696 50.2302 10.0696 50.6717C10.0696 51.7509 14.1138 51.3094 14.1138 54.2528C14.1138 55.8717 12.5546 56.8528 10.8005 56.8528C9.63111 56.8528 8.41298 56.4603 7.43848 55.7245L8.51043 54.1056Z" fill="#293E40"/>
<path fill-rule="evenodd" clip-rule="evenodd" d="M22.4946 52.3886C22.4946 50.0339 20.8867 48.0717 18.5479 48.0717C16.0629 48.0717 14.5037 50.132 14.5037 52.4377C14.5037 55.0867 16.3552 56.8037 18.8402 56.8037C20.1071 56.8037 21.4226 56.2641 22.251 55.283L20.9841 54.0075C20.5943 54.449 19.8147 54.9886 18.8889 54.9886C17.7195 54.9886 16.745 54.1547 16.6476 52.9773H22.3971C22.4946 52.8301 22.4946 52.6339 22.4946 52.3886ZM16.7937 51.4075C16.8912 50.6226 17.6708 49.9358 18.5966 49.9358C19.5224 49.9358 20.1558 50.6717 20.2532 51.4075H16.7937Z" fill="#293E40"/>
<path fill-rule="evenodd" clip-rule="evenodd" d="M33.8962 53.4189L36.1863 48.2679H38.5251L34.6758 56.6566H33.1166L29.316 48.2679H31.6061L33.8962 53.4189Z" fill="#293E40"/>
<path fill-rule="evenodd" clip-rule="evenodd" d="M40.3767 44.3434C41.205 44.3434 41.8384 44.9811 41.8384 45.766C41.8384 46.6 41.205 47.1887 40.3767 47.1887C39.5483 47.1887 38.9149 46.5509 38.9149 45.766C38.9149 44.9321 39.5483 44.3434 40.3767 44.3434Z" fill="#293E40"/>
<path d="M41.4973 48.2679H39.256V56.6566H41.4973V48.2679Z" fill="#293E40"/>
<path fill-rule="evenodd" clip-rule="evenodd" d="M50.7065 54.9396C49.732 56.2641 48.5138 56.8037 46.9546 56.8037C44.3722 56.8037 42.5206 54.8415 42.5206 52.4377C42.5206 49.9849 44.4696 48.0717 47.0033 48.0717C48.4651 48.0717 49.732 48.7584 50.5116 49.7396L48.9524 51.1622C48.5138 50.5735 47.8317 50.1811 47.0521 50.1811C45.7852 50.1811 44.8107 51.2113 44.8107 52.4867C44.8107 53.8113 45.7365 54.7924 47.1008 54.7924C48.0266 54.7924 48.7087 54.2528 49.0985 53.6641L50.7065 54.9396Z" fill="#293E40"/>
<path fill-rule="evenodd" clip-rule="evenodd" d="M58.7948 55.332C57.9665 56.3132 56.6509 56.8528 55.384 56.8528C52.899 56.8528 51.0475 55.1358 51.0475 52.4868C51.0475 50.132 52.6067 48.1207 55.0917 48.1207C57.3818 48.1207 59.0384 50.083 59.0384 52.4377C59.0384 52.683 59.0384 52.8792 58.9897 53.0754H53.1914C53.2888 54.2528 54.2633 55.0868 55.4327 55.0868C56.3585 55.0868 57.1381 54.5471 57.5279 54.1056L58.7948 55.332ZM56.6996 51.4075C56.6509 50.6717 55.9687 49.9358 55.0429 49.9358C54.1172 49.9358 53.3863 50.6226 53.2401 51.4075H56.6996Z" fill="#293E40"/>
<path fill-rule="evenodd" clip-rule="evenodd" d="M59.8668 56.6566V48.2679H62.0107V48.9547C62.6442 48.4151 63.4238 48.1207 64.3495 48.1207C65.5189 48.1207 66.5422 48.6604 67.2243 49.4943C67.7603 50.132 68.1014 51.0151 68.1014 52.4377V56.7056H65.86V52.2415C65.86 51.4075 65.6651 50.966 65.3728 50.6717C65.0804 50.3773 64.6419 50.1811 64.1059 50.1811C63.1801 50.1811 62.4005 50.7698 62.0595 51.2113V56.6566H59.8668Z" fill="#293E40"/>
<path fill-rule="evenodd" clip-rule="evenodd" d="M73.8509 48.1207C71.171 48.1207 68.9784 50.2792 68.9784 52.9773C68.9784 54.4 69.5631 55.6754 70.4889 56.6075C70.83 56.9509 71.3659 56.9509 71.7557 56.6566C72.2917 56.2151 73.0226 55.9698 73.8509 55.9698C74.6792 55.9698 75.3614 56.2151 75.9461 56.6566C76.3359 56.9509 76.8719 56.9019 77.213 56.5585C78.1387 55.6754 78.7234 54.4 78.7234 52.9773C78.6747 50.3283 76.5308 48.1207 73.8509 48.1207ZM73.8022 55.4792C72.3404 55.4792 71.3659 54.4 71.3659 53.0264C71.3659 51.6528 72.3404 50.5736 73.8022 50.5736C75.264 50.5736 76.2385 51.7019 76.2385 53.0264C76.2385 54.3509 75.264 55.4792 73.8022 55.4792Z" fill="#81B5A1"/>
<path fill-rule="evenodd" clip-rule="evenodd" d="M83.1088 56.6566H81.4521L78.1388 48.2679H80.3314L82.1343 53.0755L83.9371 48.2679H85.7886L87.5428 53.0755L89.3943 48.2679H91.6357L88.3224 56.6566H86.6657L84.8629 51.8981L83.1088 56.6566Z" fill="#293E40"/>
<path d="M91.6356 55.7245H91.4407V56.0679H91.2946V55.0868H91.6844C91.8793 55.0868 91.9767 55.234 91.9767 55.3811C91.9767 55.5283 91.8793 55.6264 91.7818 55.6755L92.0254 56.0679H91.8305L91.6356 55.7245ZM91.4407 55.5774H91.6844C91.7818 55.5774 91.8305 55.5283 91.8305 55.4302C91.8305 55.3321 91.7818 55.283 91.6844 55.283H91.4407V55.5774Z" fill="#293E40"/>
<path d="M91.6356 54.6943C92.1229 54.6943 92.5127 55.0867 92.5127 55.5773C92.5127 56.0679 92.1229 56.4603 91.6356 56.4603C91.1484 56.4603 90.7586 56.0679 90.7586 55.5773C90.7099 55.1358 91.1484 54.6943 91.6356 54.6943ZM91.6356 54.5471C91.0509 54.5471 90.6124 55.0377 90.6124 55.5773C90.6124 56.166 91.0997 56.6075 91.6356 56.6075C92.2203 56.6075 92.6589 56.1169 92.6589 55.5773C92.6589 55.0377 92.1716 54.5471 91.6356 54.5471Z" fill="#293E40"/>
</svg>
