<svg width="100" height="100" viewBox="0 0 100 100" fill="none" xmlns="http://www.w3.org/2000/svg">
<path d="M47.6877 56.9355C59.8203 56.9355 69.6554 47.1002 69.6554 34.9677C69.6554 22.8353 59.8203 13 47.6877 13C35.5553 13 25.72 22.8353 25.72 34.9677C25.72 47.1002 35.5553 56.9355 47.6877 56.9355Z" fill="#036C70"/>
<path d="M68.209 73.1217C78.5842 73.1217 86.9951 64.7109 86.9951 54.3356C86.9951 43.9603 78.5842 35.5494 68.209 35.5494C57.8337 35.5494 49.4229 43.9603 49.4229 54.3356C49.4229 64.7109 57.8337 73.1217 68.209 73.1217Z" fill="#1A9BA1"/>
<path d="M49.9999 86.995C58.3011 86.995 65.031 80.2656 65.031 71.9639C65.031 63.6626 58.3011 56.9327 49.9999 56.9327C41.6985 56.9327 34.9688 63.6626 34.9688 71.9639C34.9688 80.2656 41.6985 86.995 49.9999 86.995Z" fill="#37C6D0"/>
<path opacity="0.1" d="M51.5427 29.1899H26.4933C25.6071 32.4486 25.4837 35.8676 26.1328 39.1817C26.7818 42.4957 28.1858 45.6157 30.2357 48.2993C32.2857 50.9829 34.9264 53.1582 37.9531 54.656C40.9797 56.1539 44.3108 56.934 47.6878 56.9363C48.3278 56.9363 48.9604 56.9067 49.5893 56.8549V56.94C45.6738 57.0441 41.9535 58.6728 39.2207 61.4789C36.4878 64.285 34.9583 68.0469 34.9578 71.9638C34.9578 72.3522 34.9578 72.7407 35.0021 73.1217H51.5316C52.3478 73.1189 53.1303 72.7934 53.7074 72.2158C54.285 71.6387 54.6105 70.8562 54.6133 70.04V32.2716C54.6105 31.4571 54.2864 30.6766 53.7115 30.0997C53.1367 29.5227 52.3571 29.1958 51.5427 29.1899Z" fill="black"/>
<path opacity="0.2" d="M49.2305 31.5022H25.9939C25.4956 34.6401 25.6833 37.8486 26.5442 40.907C27.4049 43.9653 28.9184 46.8008 30.9802 49.2181C33.042 51.6354 35.6033 53.5772 38.4875 54.9095C41.3718 56.2418 44.5106 56.9336 47.6878 56.9364C48.3279 56.9364 48.9605 56.9068 49.5894 56.855V56.9401C47.6147 56.9942 45.6701 57.4368 43.8665 58.2423C42.0629 59.0484 40.4356 60.2012 39.0776 61.6357C37.7196 63.0707 36.6575 64.7586 35.9519 66.6037C35.2463 68.4488 34.911 70.4147 34.9652 72.3893C34.9912 73.4164 35.1239 74.4379 35.361 75.4377H49.2305C50.0477 75.4358 50.831 75.1098 51.4086 74.5318C51.9862 73.9533 52.3113 73.1694 52.3122 72.3523V34.5839C52.3095 33.7675 51.9839 32.9853 51.4063 32.408C50.8292 31.8308 50.0467 31.5051 49.2305 31.5022Z" fill="black"/>
<path opacity="0.2" d="M49.2305 31.5022H25.9939C25.4956 34.6401 25.6833 37.8486 26.5442 40.907C27.4049 43.9653 28.9184 46.8008 30.9802 49.2181C33.042 51.6354 35.6033 53.5772 38.4875 54.9095C41.3718 56.2418 44.5106 56.9336 47.6878 56.9364C48.3279 56.9364 48.9605 56.9068 49.5894 56.855V56.9401C45.8727 57.039 42.3245 58.5119 39.6303 61.0743C36.9362 63.6362 35.2873 67.1064 35.0022 70.8133H49.2305C50.0477 70.8114 50.831 70.4854 51.4086 69.9074C51.9862 69.3288 52.3113 68.545 52.3122 67.7279V34.5839C52.3095 33.7675 51.9839 32.9853 51.4063 32.408C50.8292 31.8308 50.0467 31.5051 49.2305 31.5022Z" fill="black"/>
<path opacity="0.2" d="M46.9183 31.5022H25.9939C25.4956 34.6401 25.6833 37.8486 26.5442 40.907C27.4049 43.9653 28.9184 46.8008 30.9802 49.2181C33.042 51.6354 35.6033 53.5772 38.4875 54.9095C41.3718 56.2418 44.5106 56.9336 47.6878 56.9364C48.3279 56.9364 48.9605 56.9068 49.5894 56.855V56.9401C45.8727 57.039 42.3245 58.5119 39.6303 61.0743C36.9362 63.6362 35.2873 67.1064 35.0022 70.8133H46.9183C47.7357 70.8114 48.5189 70.4854 49.0966 69.9074C49.6742 69.3288 49.9991 68.545 50 67.7279V34.5839C49.9971 33.7675 49.6715 32.9853 49.0942 32.408C48.5169 31.8308 47.7347 31.5051 46.9183 31.5022Z" fill="black"/>
<path d="M46.9182 31.5022H16.0865C14.3845 31.5022 13.0048 32.8819 13.0048 34.5839V65.4157C13.0048 67.1175 14.3845 68.4974 16.0865 68.4974H46.9182C48.6202 68.4974 49.9999 67.1175 49.9999 65.4157V34.5839C49.9999 32.8819 48.6202 31.5022 46.9182 31.5022Z" fill="#038387"/>
<path d="M26.9113 49.767C26.1011 49.2346 25.4239 48.5233 24.9321 47.6878C24.452 46.81 24.2121 45.821 24.2366 44.8207C24.1945 43.4715 24.6515 42.1543 25.5203 41.1212C26.4267 40.0849 27.6002 39.3171 28.9127 38.9015C30.413 38.4014 31.9853 38.1515 33.5667 38.1616C35.6459 38.0849 37.7223 38.3754 39.7005 39.0199V43.3705C38.84 42.8505 37.904 42.4673 36.9259 42.2347C35.8658 41.9808 34.7788 41.8565 33.6888 41.8648C32.5391 41.8194 31.3958 42.0569 30.3593 42.5566C29.9674 42.7258 29.6333 43.0055 29.3981 43.3617C29.1628 43.7179 29.0366 44.1349 29.0348 44.5617C29.0308 45.0896 29.2309 45.5986 29.5935 45.9824C30.0269 46.4301 30.5384 46.795 31.1029 47.0589C31.7367 47.3672 32.6801 47.784 33.933 48.3094C34.073 48.352 34.2091 48.4065 34.3399 48.4721C35.5768 48.9574 36.771 49.5452 37.91 50.2295C38.7712 50.7618 39.4938 51.491 40.0187 52.3567C40.5572 53.3348 40.8194 54.4409 40.7771 55.5568C40.8402 56.9446 40.4162 58.3106 39.5785 59.4191C38.7435 60.4388 37.6266 61.1902 36.3673 61.5796C34.8884 62.0444 33.3446 62.2691 31.7947 62.2455C30.4049 62.2529 29.0171 62.1378 27.6475 61.9015C26.4903 61.7188 25.3605 61.3919 24.2846 60.9285V56.3337C25.3144 57.0699 26.4668 57.6174 27.6882 57.9504C28.9018 58.3305 30.1642 58.5321 31.4358 58.5497C32.6156 58.6205 33.792 58.3643 34.8357 57.8098C35.194 57.6063 35.4905 57.3099 35.6938 56.952C35.8971 56.5936 35.9994 56.1866 35.9899 55.7751C35.9919 55.4861 35.9363 55.1993 35.8264 54.932C35.7166 54.6643 35.5546 54.4215 35.3499 54.2176C34.8309 53.7107 34.2307 53.2941 33.5741 52.9856C32.8342 52.6083 31.7244 52.1149 30.2446 51.5058C29.0776 51.0402 27.9608 50.4575 26.9113 49.767Z" fill="white"/>
</svg>
