<svg xmlns="http://www.w3.org/2000/svg" width="77" height="32" fill="none" viewBox="0 0 77 32">
    <path fill="#005CB9" fill-rule="evenodd" d="M11.262 27.764c-.067.207-.223.344-.513.344H9.123c-.267 0-.4-.069-.467-.344L7.119 21.81c-.156-.598-.223-1.31-.312-2-.067.713-.156 1.425-.312 2l-1.581 5.953c-.045.207-.223.344-.512.344H2.754c-.268 0-.401-.069-.468-.344L.014 19.19c-.067-.299.112-.46.357-.46h1.046c.29 0 .446.092.513.391l1.425 6.113c.156.69.2 1.425.267 2.092.112-.644.2-1.402.379-2.069L5.582 19.1c.067-.253.267-.368.535-.368h1.292c.267 0 .49.138.556.391L9.57 25.26c.178.666.267 1.401.356 2.068.09-.644.178-1.402.312-2.069l1.314-6.159c.045-.253.267-.368.535-.368h.98c.245 0 .423.161.356.46l-2.16 8.573zm8.753.436c-2.606 0-4.299-1.838-4.299-4.85 0-2.987 1.693-4.78 4.299-4.78 2.605 0 4.253 1.816 4.253 4.78 0 3.012-1.648 4.85-4.253 4.85zm-.045-8.32c-1.537 0-2.405 1.15-2.405 3.494 0 2.39.846 3.562 2.405 3.562 1.537 0 2.405-1.149 2.405-3.562-.022-2.344-.868-3.493-2.405-3.493zm12.65.161c-.066.276-.267.437-.645.345-.312-.069-.824-.207-1.248-.207-.646 0-1.514.759-1.514 2.46v5.079c0 .207-.223.39-.468.39H27.9c-.245 0-.468-.183-.468-.39v-8.596c0-.23.223-.39.468-.39h.512c.223 0 .401.091.468.298l.312 1.057c.623-.919 1.47-1.494 2.516-1.494.713 0 1.27.3 1.158.69l-.245.758zm20.446 7.976H52.6c-.334 0-.513-.115-.58-.391l-.178-.782c-.645.943-1.447 1.333-2.628 1.333-2.316 0-3.519-1.631-3.519-4.78 0-1.93.312-2.873 1.07-3.77.578-.689 1.536-1.056 2.516-1.056 1.091 0 1.916.46 2.517 1.378v-5.286c0-.23.223-.39.468-.39h.801c.245 0 .468.16.468.39v12.963c0 .23-.223.39-.468.39zm-3.407-8.16c-.668 0-1.18.253-1.492.759-.312.506-.557 1.333-.557 2.758 0 2.482.623 3.516 2.026 3.516 1.448 0 2.183-1.126 2.183-3.47.022-2.321-.78-3.563-2.16-3.563zm-6.771 8.251h-1.359c-.222 0-.4-.137-.534-.321l-3.452-4.528v4.459c0 .207-.223.39-.468.39h-.802c-.245 0-.468-.183-.468-.39V14.709c0-.23.223-.39.468-.39h.802c.245 0 .468.16.468.39v8.366l3.541-4.068a.667.667 0 0 1 .579-.299h1.203c.312 0 .423.276.245.46l-3.786 3.907 3.786 4.528c.178.23.089.505-.223.505zm23.831-8.986c-.089-.207.134-.39.401-.39h1.047c.29 0 .49.137.579.39L70.84 24.8c.089.276.178.666.245.988.066-.299.222-.85.378-1.333l1.67-5.332c.067-.253.29-.368.58-.368h1.024c.267 0 .468.184.401.391l-3.474 10.296c-.357 1.058-1.047 1.885-2.228 2.345l-.49.184c-.2.069-.49.023-.623-.161l-.334-.529c-.09-.16.022-.46.245-.529l.356-.137c.89-.322 1.537-1.334 1.804-2.598l-3.675-8.894zm-5.991-.552c2.606 0 3.942 1.793 3.92 4.78v4.299c0 .207-.223.39-.468.39h-.468c-.334 0-.512-.115-.579-.39l-.178-.805c-.646.966-1.314 1.333-2.36 1.333-2.428 0-3.987-1.792-3.987-4.803 0-2.988 1.514-4.804 4.12-4.804zm-.045 8.297c1.537 0 2.272-1.103 2.272-3.516 0-2.344-.735-3.493-2.272-3.493-1.536 0-2.205 1.149-2.205 3.493 0 2.413.669 3.516 2.205 3.516zm15.572-1.175a1.224 1.224 0 0 1 .655.681c.06.153.09.312.09.482 0 .173-.03.331-.094.485-.06.155-.148.286-.265.405a1.308 1.308 0 0 1-.4.273 1.17 1.17 0 0 1-.929-.003 1.292 1.292 0 0 1-.656-.686 1.253 1.253 0 0 1-.093-.474c0-.115.017-.225.045-.337.03-.107.073-.214.134-.318.111-.19.255-.338.436-.446.182-.108.382-.16.6-.16.168 0 .327.032.477.098zm-.859.187a.923.923 0 0 0-.322.221c-.101.1-.174.218-.229.349a1.068 1.068 0 0 0-.007.8c.051.125.125.239.22.336.096.101.208.18.332.236a.952.952 0 0 0 .771.003c.124-.052.238-.128.34-.228a1.017 1.017 0 0 0 .298-.724c0-.149-.024-.287-.074-.414a1.04 1.04 0 0 0-.547-.576 1.013 1.013 0 0 0-.782-.003zm.41.252c.19 0 .335.035.432.1.097.07.144.167.144.303a.363.363 0 0 1-.077.234.401.401 0 0 1-.218.135l.302.624h-.365l-.258-.571h-.162v.57h-.33v-1.395h.532zm-.201.62h.16a.37.37 0 0 0 .212-.049c.044-.03.067-.079.067-.148 0-.07-.023-.122-.07-.156a.4.4 0 0 0-.225-.052h-.144v.405z" clip-rule="evenodd"/>
    <path fill="#F38B00" fill-rule="evenodd" d="M22.286 14.686C25.248 7.492 32.153 2.46 40.193 2.46S55.138 7.492 58.1 14.686c.178.483.623.828 1.158.828.668 0 1.225-.575 1.225-1.264 0-.161-.022-.322-.089-.483C57.054 5.677 49.258 0 40.194 0c-9.066 0-16.86 5.677-20.202 13.767-.067.138-.089.322-.089.482 0 .69.557 1.265 1.225 1.265.535 0 .98-.345 1.158-.828z" clip-rule="evenodd"/>
</svg>
