<svg width="100px" height="100px" viewBox="0 0 100 100" fill="none" xmlns="http://www.w3.org/2000/svg">
<path d="M87.0874 46.6485L71.4722 19.4912C70.885 18.4498 70.0359 17.5798 69.0091 16.9675C67.9823 16.3552 66.8133 16.0217 65.618 16H34.3817C33.1862 16.0211 32.017 16.3543 30.9901 16.9667C29.9632 17.5791 29.1142 18.4494 28.5275 19.4912L12.9063 46.5773C12.3125 47.6106 12 48.7816 12 49.9734C12 51.1652 12.3125 52.3362 12.9063 53.3696L28.5215 80.6813C29.1025 81.7378 29.9469 82.6261 30.9728 83.2597C31.9986 83.8933 33.1709 84.2507 34.3757 84.2971H65.612C66.8167 84.2558 67.99 83.9025 69.0172 83.2718C70.0443 82.6412 70.8903 81.7547 71.4722 80.6991L87.0874 53.5418C87.6855 52.4915 88 51.3037 88 50.0951C88 48.8865 87.6855 47.6987 87.0874 46.6485Z" fill="#4285F4"/>
<path opacity="0.07" d="M62.7563 42.1541L41.275 44.1312L37.1189 48.2873L40.6813 51.8497L37.1486 58.0364L63.3916 84.2794H65.6122C66.8168 84.2381 67.9901 83.8848 69.0173 83.2541C70.0445 82.6234 70.8904 81.737 71.4723 80.6814L82.3554 61.7532L62.7563 42.1541Z" fill="black"/>
<path d="M62.287 41.9876H37.6827C37.5861 41.9844 37.4898 42.0006 37.3996 42.0352C37.3093 42.0698 37.2269 42.1221 37.1572 42.1891C37.0875 42.256 37.0319 42.3363 36.9936 42.425C36.9554 42.5138 36.9353 42.6093 36.9346 42.706V47.7943C36.9346 47.9848 37.0103 48.1676 37.145 48.3023C37.2797 48.437 37.4625 48.5127 37.653 48.5127H62.287C62.477 48.5111 62.6589 48.435 62.7933 48.3006C62.9277 48.1662 63.0038 47.9843 63.0054 47.7943V42.706C63.0038 42.5159 62.9277 42.3341 62.7933 42.1997C62.6589 42.0653 62.477 41.9891 62.287 41.9876ZM58.4811 46.7374C58.1899 46.7374 57.9052 46.6511 57.6631 46.4893C57.4209 46.3275 57.2322 46.0975 57.1208 45.8285C57.0093 45.5594 56.9802 45.2633 57.037 44.9777C57.0938 44.6921 57.234 44.4297 57.44 44.2238C57.6459 44.0179 57.9083 43.8776 58.1939 43.8208C58.4795 43.764 58.7756 43.7932 59.0446 43.9046C59.3137 44.0161 59.5437 44.2048 59.7055 44.4469C59.8672 44.6891 59.9536 44.9738 59.9536 45.265C59.9536 45.4583 59.9155 45.6498 59.8415 45.8285C59.7675 46.0071 59.6591 46.1694 59.5223 46.3062C59.3856 46.4429 59.2233 46.5514 59.0446 46.6254C58.866 46.6994 58.6745 46.7374 58.4811 46.7374Z" fill="white"/>
<path d="M62.2869 51.7665H37.6826C37.5835 51.7632 37.4847 51.7803 37.3924 51.8167C37.3002 51.8531 37.2164 51.9081 37.1462 51.9783C37.0761 52.0484 37.0211 52.1322 36.9847 52.2245C36.9483 52.3167 36.9312 52.4155 36.9345 52.5146V57.6029C36.936 57.793 37.0122 57.9748 37.1466 58.1092C37.281 58.2436 37.4628 58.3198 37.6529 58.3213H62.2869C62.4769 58.3198 62.6588 58.2436 62.7932 58.1092C62.9276 57.9748 63.0038 57.793 63.0053 57.6029V52.4849C63.0038 52.2949 62.9276 52.113 62.7932 51.9787C62.6588 51.8443 62.4769 51.7681 62.2869 51.7665ZM58.4811 56.5164C58.1898 56.5164 57.9052 56.43 57.663 56.2682C57.4209 56.1064 57.2321 55.8765 57.1207 55.6074C57.0092 55.3384 56.9801 55.0423 57.0369 54.7567C57.0937 54.471 57.234 54.2087 57.4399 54.0027C57.6458 53.7968 57.9082 53.6566 58.1938 53.5998C58.4794 53.5429 58.7755 53.5721 59.0445 53.6836C59.3136 53.795 59.5436 53.9837 59.7054 54.2259C59.8672 54.468 59.9535 54.7527 59.9535 55.0439C59.9535 55.2373 59.9154 55.4288 59.8414 55.6074C59.7674 55.7861 59.659 55.9484 59.5223 56.0851C59.3855 56.2218 59.2232 56.3303 59.0445 56.4043C58.8659 56.4783 58.6744 56.5164 58.4811 56.5164Z" fill="white"/>
</svg>
